PathFileType	4	(X/Y/Z)	/Users/itak/Documents/Research/Walk-IL/dataset/trc/00246_00009.trc
DataRate	CameraRate	NumFrames	NumMarkers	Units	OrigDataRate	OrigDataStartFrame	OrigNumFrames
100.000000	100.000000	4	53	mm	100.000000	732	837
Frame#	Time	RPSI			LPSI			L3			STRN			T10			C7			CLAV			RBAK			LBAK			LSHO			LUPA			LAEL			LAOL			LWTS			LWPS			LFRA			LIFD			LHPS			LHTS			RSHO			RUPA			RAEL			RAOL			RWTS			RWPS			RFRA			RIFD			RHTS			RHPS			RBHD			LFHD			RFHD			LBHD			LHIP			RHIP			RASI			LASI			LKNE			LTHI			LANK			LTIP			LTOE			LMT1			LMT5			LHEE			RKNE			RTHI			RANK			RTIP			RTOE			RMT1			RMT5			RHEE			
		X1	Y1	Z1	X2	Y2	Z2	X3	Y3	Z3	X4	Y4	Z4	X5	Y5	Z5	X6	Y6	Z6	X7	Y7	Z7	X8	Y8	Z8	X9	Y9	Z9	X10	Y10	Z10	X11	Y11	Z11	X12	Y12	Z12	X13	Y13	Z13	X14	Y14	Z14	X15	Y15	Z15	X16	Y16	Z16	X17	Y17	Z17	X18	Y18	Z18	X19	Y19	Z19	X20	Y20	Z20	X21	Y21	Z21	X22	Y22	Z22	X23	Y23	Z23	X24	Y24	Z24	X25	Y25	Z25	X26	Y26	Z26	X27	Y27	Z27	X28	Y28	Z28	X29	Y29	Z29	X30	Y30	Z30	X31	Y31	Z31	X32	Y32	Z32	X33	Y33	Z33	X34	Y34	Z34	X35	Y35	Z35	X36	Y36	Z36	X37	Y37	Z37	X38	Y38	Z38	X39	Y39	Z39	X40	Y40	Z40	X41	Y41	Z41	X42	Y42	Z42	X43	Y43	Z43	X44	Y44	Z44	X45	Y45	Z45	X46	Y46	Z46	X47	Y47	Z47	X48	Y48	Z48	X49	Y49	Z49	X50	Y50	Z50	X51	Y51	Z51	X52	Y52	Z52	X53	Y53	Z53	

733	7.32	477.4270324707031	1044.437866210938	547.4276123046875	525.1570434570312	1049.799194335938	658.0226440429688	509.02734375	1128.803344726562	608.1173095703125	283.9797973632812	1311.935180664062	720.0829467773438	501.2549743652344	1254.290405273438	593.3408813476562	443.9382019042969	1515.044067382812	616.47998046875	304.2613525390625	1429.21435546875	702.952880859375	474.826416015625	1374.831909179688	518.2584838867188	518.58203125	1480.153442382812	701.1288452148438	472.4905395507812	1483.233032226562	795.9827270507812	542.0938720703125	1367.593017578125	848.9258422851562	552.2229614257812	1160.045776367188	892.1193237304688	580.8690185546875	1138.5205078125	812.5831298828125	446.578125	927.4968872070312	918.5054931640625	515.813232421875	914.1712646484375	966.2395629882812	544.01220703125	1055.260620117188	924.2694702148438	447.4906311035156	734.0050048828125	945.6045532226562	499.4779968261719	827.2991333007812	981.2946166992188	432.3741149902344	830.7467041015625	965.46240234375	308.4975891113281	1468.781494140625	502.7239074707031	290.8299560546875	1402.014038085938	436.8301086425781	285.4289245605469	1118.941528320312	405.6419982910156	360.5904235839844	1112.608032226562	464.5455322265625	173.0858612060547	928.75634765625	537.627197265625	184.2598419189453	902.2088012695312	457.7973022460938	251.7387237548828	1052.086669921875	415.2891235351562	141.5684967041016	742.7891235351562	575.63623046875	115.9743423461914	817.5081787109375	559.6873779296875	136.8296203613281	804.2904052734375	490.5286560058594	382.4149475097656	1666.642456054688	589.03857421875	253.1355895996094	1720.946166992188	768.3565063476562	203.3383941650391	1714.106201171875	680.6434326171875	408.0832824707031	1682.552490234375	725.8907470703125	487.4325561523438	988.6629638671875	827.2028198242188	347.5188903808594	1001.190368652344	486.77001953125	270.5985717773438	1042.952270507812	559.9483642578125	376.752197265625	1031.326293945312	821.7792358398438	344.7838745117188	516.488037109375	864.4662475585938	389.5648193359375	656.2290649414062	870.5699462890625	538.4739990234375	67.02161407470703	819.6011352539062	448.0364379882812	310.6419677734375	849.0541381835938	325.1092224121094	61.20621109008789	862.151123046875	367.25146484375	55.24797821044922	794.9226684570312	432.7687377929688	52.09734344482422	888.1866455078125	570.78515625	82.02479553222656	747.3529663085938	298.9931335449219	514.4725341796875	584.4688720703125	284.3251342773438	778.3485107421875	521.25830078125	370.7734375	31.40842819213867	626.4873657226562	297.459228515625	395.4288940429688	615.3274536132812	193.2539215087891	44.57471084594727	747.1355590820312	262.8540649414062	41.38661956787109	764.478515625	258.74853515625	34.40864944458008	644.7686767578125	450.1148071289062	28.72116851806641	654.2288208007812	
734	7.33	476.8432006835938	1044.405395507812	548.9212646484375	524.12060546875	1049.887817382812	659.7222900390625	508.1102600097656	1128.982788085938	609.7119750976562	282.2781372070312	1311.964721679688	720.5279541015625	500.2971496582031	1254.492431640625	594.94921875	442.7392578125	1515.179809570312	617.8761596679688	302.6753540039062	1429.264526367188	703.5978393554688	474.16650390625	1375.02392578125	519.7529907226562	517.0120239257812	1480.325317382812	703.0238647460938	470.23974609375	1483.315063476562	797.5502319335938	538.8080444335938	1367.595092773438	851.4132690429688	546.6755981445312	1160.033203125	895.7406616210938	576.322265625	1138.058959960938	816.737548828125	439.9688720703125	927.9246826171875	921.481689453125	508.581787109375	914.5963745117188	970.2803344726562	537.641845703125	1055.466674804688	928.1360473632812	439.4415588378906	734.5750122070312	949.707763671875	491.4820556640625	827.8872680664062	985.62158203125	424.6334533691406	831.6162719726562	968.7782592773438	307.8551635742188	1468.844848632812	503.4231567382812	290.5339660644531	1402.079467773438	437.4540100097656	285.7343444824219	1119.01806640625	406.0633850097656	360.6648254394531	1112.761840820312	465.3916931152344	173.1557159423828	928.2243041992188	536.8709716796875	184.8500518798828	901.8440551757812	456.9140930175781	252.0507354736328	1052.085205078125	415.3372497558594	141.8354797363281	742.038818359375	574.1480712890625	116.4240417480469	816.6287231445312	558.2940063476562	137.3848876953125	803.7869873046875	489.1861267089844	381.1782531738281	1666.651489257812	589.9932861328125	251.3066101074219	1721.063354492188	768.8582153320312	201.7791900634766	1714.181762695312	680.955322265625	406.3990783691406	1682.692626953125	726.8977661132812	485.3826904296875	989.030029296875	828.8291015625	347.3128051757812	1001.195251464844	487.4819946289062	270.0673828125	1042.92919921875	560.5194091796875	374.859619140625	1031.727905273438	822.828125	340.7412109375	517.2409057617188	865.19580078125	386.2105407714844	656.7730712890625	871.624267578125	528.0708618164062	64.70020294189453	825.4119262695312	440.9350280761719	309.6935729980469	852.38623046875	313.8555297851562	62.18705368041992	863.7675170898438	357.1574401855469	55.29370880126953	797.39990234375	420.759521484375	51.6626091003418	891.9117431640625	561.9772338867188	78.92162322998047	753.7717895507812	298.280029296875	514.4180908203125	585.2003784179688	283.8634643554688	778.3114624023438	522.02392578125	370.7686157226562	31.48664855957031	626.58447265625	296.7570190429688	395.3471984863281	615.9013671875	193.1871643066406	44.46817779541016	747.231201171875	262.8287963867188	41.15259170532227	764.6349487304688	258.7373962402344	34.42518997192383	644.8042602539062	450.18505859375	28.85417175292969	654.2236328125	
735	7.34	476.2926635742188	1044.3525390625	550.427978515625	523.0836791992188	1049.961181640625	661.4383544921875	507.2214050292969	1129.15625	611.3219604492188	280.6036682128906	1311.9931640625	720.9609985351562	499.3813171386719	1254.695068359375	596.5650634765625	441.5843505859375	1515.31640625	619.2876586914062	301.1216430664062	1429.324951171875	704.2320556640625	473.5590209960938	1375.220581054688	521.2608032226562	515.4693603515625	1480.489013671875	704.9490356445312	467.9848327636719	1483.393188476562	799.133544921875	535.5104370117188	1367.59326171875	853.920166015625	541.0802612304688	1160.042358398438	899.3252563476562	571.7564697265625	1137.628540039062	820.8834838867188	433.3373718261719	928.3682250976562	924.318359375	501.3113708496094	915.0338134765625	974.2144165039062	531.21875	1055.690673828125	931.9308471679688	431.2781677246094	735.170654296875	953.7034301757812	483.4089660644531	828.5022583007812	989.8480224609375	416.8321533203125	832.52392578125	971.9677734375	307.2643737792969	1468.919311523438	504.1253051757812	290.3069458007812	1402.159423828125	438.0889892578125	286.0726623535156	1119.111572265625	406.469482421875	360.8307495117188	1112.939331054688	466.2283935546875	173.4172058105469	927.6046142578125	536.0574340820312	185.582763671875	901.4411010742188	455.9456176757812	252.4559631347656	1052.109375	415.3801574707031	142.434326171875	741.1438598632812	572.46240234375	117.1392974853516	815.5308837890625	556.7750854492188	138.1679534912109	803.208740234375	487.70849609375	379.9711303710938	1666.662963867188	590.9647216796875	249.541015625	1721.161865234375	769.3964233398438	200.2691650390625	1714.24267578125	681.3041381835938	404.7677612304688	1682.828735351562	727.9248657226562	483.3385009765625	989.400634765625	830.4669189453125	347.1089172363281	1001.186096191406	488.2830505371094	269.5172729492188	1042.914428710938	561.0352783203125	372.9250793457031	1032.130126953125	823.8427124023438	336.9201049804688	517.9390869140625	865.9083251953125	383.0248107910156	657.29443359375	872.6619262695312	517.7097778320312	62.45573425292969	830.6949462890625	433.9464111328125	308.7342834472656	855.4666748046875	302.7955627441406	63.19728469848633	864.843017578125	347.1903686523438	55.42404556274414	799.3535766601562	408.8663024902344	51.23904037475586	895.063720703125	553.1687622070312	75.92575836181641	759.7025146484375	297.5838623046875	514.373779296875	585.8908081054688	283.4395751953125	778.273681640625	522.7742919921875	370.7641296386719	31.56176567077637	626.6810302734375	296.0674743652344	395.27294921875	616.4387817382812	193.1158294677734	44.36565399169922	747.325927734375	262.8052978515625	40.91872787475586	764.8003540039062	258.7251892089844	34.44435882568359	644.8323364257812	450.2544250488281	28.95822143554688	654.2483520507812	
736	7.350000000000001	475.7623901367188	1044.286010742188	551.95166015625	522.0289306640625	1050.0205078125	663.177001953125	506.3528747558594	1129.323608398438	612.953125	278.9640502929688	1312.019653320312	721.386962890625	498.510009765625	1254.895263671875	598.19580078125	440.4755554199219	1515.453247070312	620.719970703125	299.5911254882812	1429.4013671875	704.8484497070312	473.0137329101562	1375.418090820312	522.7918090820312	513.9490356445312	1480.643920898438	706.9066772460938	465.7252197265625	1483.467407226562	800.7341918945312	532.2069702148438	1367.587768554688	856.440185546875	535.4741821289062	1160.07275390625	902.8545532226562	567.1931762695312	1137.22802734375	824.99267578125	426.6961669921875	928.840087890625	927.02392578125	493.9983520507812	915.4898071289062	978.0296630859375	524.7682495117188	1055.930419921875	935.6373291015625	422.997802734375	735.8203735351562	957.587890625	475.2654113769531	829.1524658203125	993.9606323242188	408.9715576171875	833.4835815429688	975.0366821289062	306.73486328125	1469.004760742188	504.8314819335938	290.1595458984375	1402.251220703125	438.7288818359375	286.4421081542969	1119.224975585938	406.8589782714844	361.0663757324219	1113.141235351562	467.0471801757812	173.860107421875	926.9116821289062	535.1895751953125	186.4427185058594	901.0205078125	454.9105224609375	252.9584655761719	1052.164672851562	415.4128112792969	143.3543548583984	740.1246337890625	570.5989990234375	118.0772094726562	814.2753295898438	555.13720703125	139.1790771484375	802.5725708007812	486.1115417480469	378.7948913574219	1666.67822265625	591.9529418945312	247.8357849121094	1721.245727539062	769.968505859375	198.8089294433594	1714.292846679688	681.6866455078125	403.1856994628906	1682.962280273438	728.9713134765625	481.331298828125	989.7721557617188	832.116943359375	346.9140625	1001.165100097656	489.15283203125	268.9239807128906	1042.910278320312	561.4827880859375	370.9434509277344	1032.526489257812	824.8334350585938	333.3179626464844	518.5732421875	866.6167602539062	379.9920959472656	657.78369140625	873.6973876953125	507.4021301269531	60.26462173461914	835.442138671875	427.0815734863281	307.7549133300781	858.2969360351562	291.9386596679688	64.25057983398438	865.3526611328125	337.3717651367188	55.65316009521484	800.7741088867188	397.114501953125	50.81916427612305	897.64990234375	544.3859252929688	73.00617218017578	765.1454467773438	296.9232482910156	514.3399047851562	586.5224609375	283.0548706054688	778.2363891601562	523.5037231445312	370.7638244628906	31.63499450683594	626.7731323242188	295.4067077636719	395.2080383300781	616.9368896484375	193.0455322265625	44.26963424682617	747.4141235351562	262.787353515625	40.68889236450195	764.9712524414062	258.712890625	34.46372985839844	644.85205078125	450.3209228515625	29.02900123596191	654.3020629882812	
